<!--?xml version="1.0" encoding="utf-8"?-->
<!-- Generator: Adobe Illustrator 18.1.1, SVG Export Plug-In . SVG Version: 6.00 Build 0)  -->

<svg version="1.1" id="_x32_" xmlns="http://www.w3.org/2000/svg" xmlns:xlink="http://www.w3.org/1999/xlink" x="0px" y="0px" viewBox="0 0 512 512" style="width: 256px; height: 256px; opacity: 1;" xml:space="preserve">
<style type="text/css">
	.st0{fill:#4B4B4B;}
</style>
<g>
	<path class="st0" d="M114.842,112.383c21.486,0,38.911-17.417,38.911-38.904c0-21.494-17.425-38.919-38.911-38.919
		c-21.494,0-38.919,17.425-38.919,38.919C75.924,94.966,93.348,112.383,114.842,112.383z" style="fill: rgb(75, 75, 75);"></path>
	<path class="st0" d="M245.776,197.805l62.796-30.047c8.474-3.585,12.442-13.348,8.857-21.83
		c-3.578-8.474-13.348-12.434-21.822-8.857l-56.461,19.292l-51.088-17.862c-9.755-3.413-19.978-5.272-30.304-5.507l-39.653-0.89
		c-42.238,0-79.751,14.074-89.108,60.906L0.405,312.344c-2.008,8.99,3.648,17.886,12.637,19.893
		c8.974,2.007,17.87-3.656,19.878-12.629l30.069-79.51l7.78,236.615c0,10.903,8.834,19.737,19.736,19.737
		c10.911,0,19.745-8.834,19.745-19.737l7.849-141.102l7.827,141.102c0,10.903,8.849,19.737,19.744,19.737
		c10.904,0,19.745-8.834,19.745-19.737l11.106-287.516l45.074,12.489C229.858,203.194,238.395,201.819,245.776,197.805z" style="fill: rgb(75, 75, 75);"></path>
	<path class="st0" d="M227.179,37.192h253.416v206.256H227.179v-17.222c-3.311-0.055-6.631-0.344-9.888-0.937l-1.062-0.195
		l-10.692-2.96v42.957h296.708v-10.826V15.55H205.537v103.644l21.642,7.568V37.192z" style="fill: rgb(75, 75, 75);"></path>
	<path class="st0" d="M233.724,358.683c0,21.486,17.417,38.911,38.919,38.911c21.486,0,38.911-17.425,38.911-38.911
		c0-21.494-17.425-38.911-38.911-38.911C251.141,319.772,233.724,337.189,233.724,358.683z" style="fill: rgb(75, 75, 75);"></path>
	<path class="st0" d="M272.644,417.042c-36.498,0-68.919,12.169-77.002,52.634l0.648,26.774h152.709l0.64-26.774
		C341.554,429.211,309.134,417.042,272.644,417.042z" style="fill: rgb(75, 75, 75);"></path>
	<path class="st0" d="M396.079,358.683c0,21.486,17.425,38.911,38.919,38.911c21.486,0,38.911-17.425,38.911-38.911
		c0-21.494-17.425-38.911-38.911-38.911C413.504,319.772,396.079,337.189,396.079,358.683z" style="fill: rgb(75, 75, 75);"></path>
	<path class="st0" d="M434.998,417.042c-36.498,0-68.918,12.169-77.002,52.634l0.648,26.774h152.709L512,469.676
		C503.909,429.211,471.496,417.042,434.998,417.042z" style="fill: rgb(75, 75, 75);"></path>
	<path class="st0" d="M407.107,175.616c-4.296,2.32-9.716,3.483-16.277,3.483c-5.202,0-10.404-0.726-15.652-2.155
		c-5.256-1.437-12.192-7.46-12.192-7.46c-1.203-0.726-2.742-0.538-3.741,0.453l-9.271,9.255c-0.648,0.664-0.968,1.609-0.867,2.53
		c0.118,0.922,0.657,1.757,1.476,2.234c0,0,9.466,7.998,16.707,9.982c4.74,1.296,9.763,2.132,15.027,2.562v15.175h18.487v-15.472
		c2.476-0.344,4.897-0.758,7.224-1.344c5.326-1.375,9.904-3.452,13.722-6.256c3.812-2.804,6.819-6.225,9.006-10.325
		c2.188-4.117,3.281-8.881,3.281-14.348c0-9.138-2.758-16.105-8.302-20.884c-5.522-4.764-13.676-7.639-24.454-8.592l-14.535-1.234
		c-5.202-0.539-8.873-1.765-11.052-3.687c-2.202-1.905-3.272-4.639-3.272-8.193c0-3.944,1.523-7.146,4.592-9.614
		c3.062-2.453,7.811-3.687,14.23-3.687c4.92,0,9.583,0.594,14.028,1.75c4.436,1.156,9.583,4.819,9.583,4.819
		c1.188,0.601,2.617,0.367,3.538-0.57l8.686-8.826c0.671-0.695,0.984-1.632,0.843-2.601c-0.148-0.944-0.726-1.773-1.577-2.21
		c0,0-6.811-5.328-13.294-7.1c-3.827-1.055-7.935-1.742-12.246-2.163V78.064h-18.487v13.348c-2.093,0.336-4.148,0.711-6.116,1.273
		c-4.709,1.367-8.841,3.42-12.395,6.139c-3.562,2.734-6.342,6.077-8.388,10.036c-2.047,3.96-3.085,8.458-3.085,13.52
		c0,9.122,2.663,15.964,7.99,20.463c5.319,4.507,12.903,7.232,22.728,8.185l16.581,1.437c5.061,0.562,8.63,1.852,10.747,3.89
		c2.132,2.054,3.186,4.85,3.186,8.397C413.566,169.68,411.411,173.273,407.107,175.616z" style="fill: rgb(75, 75, 75);"></path>
</g>
</svg>
